<?xml version="1.0" encoding="UTF-8"?>
<svg version="1.1" xmlns="http://www.w3.org/2000/svg" width="512" height="512">
<path d="M0 0 C4.56619102 3.74334949 8.27055219 8.42931468 9.5390625 14.26171875 C10.194155 24.30121507 9.09311759 33.51318806 6.92919922 43.33056641 C6.64393286 44.6780304 6.36002217 46.02578196 6.07732773 47.37378788 C5.30487567 51.03844986 4.51379045 54.69886328 3.7194562 58.35883498 C2.86011031 62.33533512 2.01894988 66.31568517 1.17562866 70.29560852 C-0.29049942 77.20343588 -1.76726018 84.10891762 -3.25134277 91.01290894 C-5.61142581 101.99310339 -7.95055262 112.97770599 -10.28613281 123.96313477 C-11.09231781 127.7540626 -11.89861809 131.54496591 -12.70495605 135.33586121 C-12.90690519 136.28538927 -13.10885433 137.23491734 -13.31692314 138.21321899 C-14.77375705 145.06173965 -16.23359108 151.90961707 -17.69445801 158.75727844 C-23.85452782 187.63855152 -29.94554313 216.53391371 -36 245.4375 C-36.43441526 247.51090934 -36.86883932 249.58431684 -37.30327225 251.65772247 C-40.68903674 267.81776336 -44.07215255 283.97835871 -47.4539566 300.13922882 C-49.64287089 310.59919697 -51.83303657 321.05890018 -54.02680361 331.51785177 C-54.93555971 335.85078979 -55.84349114 340.18389596 -56.74901199 344.51751137 C-58.51176364 352.95196149 -60.28400068 361.38418112 -62.08658803 369.81021899 C-62.86009557 373.42823329 -63.62631013 377.04750469 -64.37739563 380.67024612 C-65.11737241 384.23897601 -65.87414167 387.80375836 -66.642838 391.36640847 C-67.0536718 393.29077103 -67.44735963 395.21876999 -67.84026718 397.14687252 C-70.14943044 407.71173998 -73.46114391 417.02542305 -82.7265625 423.23828125 C-86.29526806 425.34413904 -88.78699167 425.48801769 -92.9609375 425.57421875 C-94.12625 425.61160156 -95.2915625 425.64898437 -96.4921875 425.6875 C-105.57329449 424.71324738 -112.38560503 420.31227766 -119.4609375 414.82421875 C-121.12563375 413.56552186 -122.79101492 412.30773036 -124.45703125 411.05078125 C-125.29089355 410.41688477 -126.12475586 409.78298828 -126.98388672 409.12988281 C-130.78818573 406.26072295 -134.65313282 403.47834556 -138.5234375 400.69921875 C-140.01440011 399.62510715 -141.50528553 398.55088838 -142.99609375 397.4765625 C-143.73230957 396.94659668 -144.46852539 396.41663086 -145.22705078 395.87060547 C-149.72616919 392.6302568 -154.21917869 389.38144173 -158.71337891 386.13427734 C-162.4488825 383.43573853 -166.1857523 380.73913922 -169.92578125 378.046875 C-177.63556823 372.49367179 -185.31846273 366.90727875 -192.9609375 361.26171875 C-199.37669246 356.52306465 -205.81052018 351.81088795 -212.2734375 347.13671875 C-213.00820313 346.60433594 -213.74296875 346.07195312 -214.5 345.5234375 C-215.86516638 344.53818755 -217.23425631 343.55834257 -218.60791016 342.58496094 C-220.2914558 341.38274521 -221.94638017 340.14069975 -223.59765625 338.89453125 C-227.00014179 336.95423254 -228.61100843 336.53294628 -232.4609375 337.26171875 C-234.67744313 338.89602223 -236.42715406 340.39037743 -238.3359375 342.32421875 C-239.39258435 343.34441828 -240.44987605 344.36395034 -241.5078125 345.3828125 C-242.26868164 346.12893799 -242.26868164 346.12893799 -243.04492188 346.89013672 C-244.8351164 348.62415618 -246.69632049 350.26210901 -248.5859375 351.88671875 C-253.26737824 355.949126 -257.86084085 360.10769208 -262.4609375 364.26171875 C-267.71848169 369.00944048 -272.98868814 373.73631154 -278.3359375 378.3828125 C-280.88965503 380.64078701 -283.390852 382.95265044 -285.8984375 385.26171875 C-298.75534712 396.90772829 -298.75534712 396.90772829 -303.7734375 397.94921875 C-307.34383765 397.03586057 -308.4989036 396.43115813 -310.4609375 393.26171875 C-311.02948084 386.7423713 -310.31538722 380.06829635 -309.75830078 373.56445312 C-309.6834848 372.65246658 -309.60866882 371.74048004 -309.53158569 370.80085754 C-309.28572503 367.81869067 -309.03377753 364.83707793 -308.78125 361.85546875 C-308.60648169 359.76381045 -308.43191434 357.67213534 -308.25753784 355.58044434 C-307.89211388 351.20947525 -307.52353103 346.83878647 -307.15283203 342.46826172 C-306.67984278 336.88749715 -306.2158694 331.30602497 -305.7544117 325.72429657 C-305.39641944 321.40864846 -305.03304959 317.0934655 -304.66814804 312.77839661 C-304.49494964 310.72140863 -304.32352575 308.6642704 -304.153965 306.60697937 C-303.91563723 303.72381524 -303.66990012 300.84137056 -303.42236328 297.95898438 C-303.35474792 297.12232742 -303.28713257 296.28567047 -303.21746826 295.42366028 C-301.87212127 280.0881162 -301.87212127 280.0881162 -298.4296875 275.6328125 C-297.615 274.99472656 -296.8003125 274.35664063 -295.9609375 273.69921875 C-295.06375 272.96574219 -294.1665625 272.23226563 -293.2421875 271.4765625 C-292.324375 270.74566406 -291.4065625 270.01476562 -290.4609375 269.26171875 C-288.78375893 267.77348159 -287.11687859 266.27355104 -285.4609375 264.76171875 C-284.22730469 263.65183594 -284.22730469 263.65183594 -282.96875 262.51953125 C-281.27500856 260.99463631 -279.58232581 259.46856473 -277.890625 257.94140625 C-274.14529494 254.56259167 -270.39575543 251.1927591 -266.5859375 247.88671875 C-262.61841026 244.43320314 -258.7524611 240.87167935 -254.88330078 237.30908203 C-251.4964919 234.19586831 -248.06196206 231.14927337 -244.5859375 228.13671875 C-241.84270332 225.716218 -239.15209182 223.23971233 -236.4609375 220.76171875 C-232.55112155 217.16159119 -228.60227282 213.6175427 -224.5859375 210.13671875 C-221.84270332 207.716218 -219.15209182 205.23971233 -216.4609375 202.76171875 C-212.55112155 199.16159119 -208.60227282 195.6175427 -204.5859375 192.13671875 C-201.30585169 189.24252539 -198.09825693 186.26952983 -194.88061523 183.30639648 C-192.12620322 180.77431759 -189.35351251 178.27136607 -186.5234375 175.82421875 C-182.33983893 172.19959786 -178.2965914 168.42786808 -174.23852539 164.66430664 C-171.34729622 161.98770837 -168.44204346 159.33860696 -165.4609375 156.76171875 C-161.34733604 153.20354028 -157.36998475 149.50329755 -153.38110352 145.80688477 C-149.28112129 142.01021 -145.14097008 138.26158641 -140.98046875 134.53125 C-136.62402584 130.60707429 -132.31080306 126.63569047 -127.99316406 122.66894531 C-125.98245939 120.82227518 -123.96996805 118.97755955 -121.95727539 117.13305664 C-120.95632613 116.21572396 -119.95551322 115.29824247 -118.95483398 114.38061523 C-116.49393769 112.1240288 -114.0314107 109.86929008 -111.56640625 107.6171875 C-109.08541236 105.34875533 -106.60755637 103.07708253 -104.13378906 100.80078125 C-102.94120884 99.7035796 -101.74775406 98.60732821 -100.55371094 97.51171875 C-98.53989158 95.66155284 -96.53120109 93.80595262 -94.5234375 91.94921875 C-93.89655029 91.37453857 -93.26966309 90.7998584 -92.6237793 90.20776367 C-88.9173847 86.76856847 -85.48220489 83.32638398 -82.4609375 79.26171875 C-82.4609375 78.27171875 -82.4609375 77.28171875 -82.4609375 76.26171875 C-90.13859587 75.64415139 -94.15916251 77.15769309 -100.5234375 81.32421875 C-101.37776367 81.86006592 -102.23208984 82.39591309 -103.11230469 82.94799805 C-104.9507805 84.10341754 -106.78381414 85.26753365 -108.61181641 86.43945312 C-111.47869911 88.27307888 -114.36263222 90.07620942 -117.25390625 91.87109375 C-122.3108812 95.01193461 -127.35540572 98.17210141 -132.39648438 101.33837891 C-137.41324842 104.48704582 -142.43740969 107.62385895 -147.4609375 110.76171875 C-149.46097409 112.01166021 -151.46097406 113.26166025 -153.4609375 114.51171875 C-165.4609375 122.01171875 -177.4609375 129.51171875 -189.4609375 137.01171875 C-190.45077637 137.63038818 -191.44061523 138.24905762 -192.46044922 138.88647461 C-194.46200369 140.13740544 -196.46363139 141.3882191 -198.46533203 142.63891602 C-203.44215346 145.74872144 -208.41771718 148.86050206 -213.390625 151.9765625 C-223.82484982 158.5115694 -234.28121568 165.00767503 -244.7734375 171.44921875 C-253.00038497 176.50070471 -261.19911258 181.59120308 -269.35205078 186.76123047 C-275.60185872 190.72410123 -281.87158549 194.65433323 -288.1484375 198.57421875 C-289.66268311 199.51986694 -289.66268311 199.51986694 -291.20751953 200.48461914 C-293.26506522 201.76932025 -295.32268282 203.0539062 -297.38037109 204.33837891 C-301.41207467 206.8555576 -305.44258439 209.37464335 -309.47290039 211.89404297 C-311.46539329 213.13945278 -313.45806921 214.38456986 -315.45092773 215.62939453 C-320.50462951 218.78646449 -325.555563 221.94781924 -330.6015625 225.1171875 C-335.583742 228.24587406 -340.57750138 231.35545448 -345.57568359 234.45849609 C-348.45184438 236.25603574 -351.31022759 238.07960674 -354.16796875 239.90625 C-355.95261603 241.02555151 -357.73774843 242.14408002 -359.5234375 243.26171875 C-360.32620117 243.78467529 -361.12896484 244.30763184 -361.95605469 244.84643555 C-363.08962402 245.54700073 -363.08962402 245.54700073 -364.24609375 246.26171875 C-364.89457275 246.67421875 -365.54305176 247.08671875 -366.21118164 247.51171875 C-371.36901053 249.23118162 -377.158606 246.8682404 -382.13842773 245.24316406 C-382.76843532 245.0393213 -383.3984429 244.83547853 -384.04754162 244.62545872 C-386.12334164 243.95233041 -388.1963894 243.27111036 -390.26953125 242.58984375 C-391.74351612 242.11022028 -393.21767153 241.63112068 -394.69198608 241.1525116 C-398.6199231 239.87577991 -402.54553733 238.59205253 -406.47058487 237.30646896 C-410.51871255 235.98132661 -414.56836487 234.66086055 -418.61791992 233.34008789 C-423.43828321 231.76778076 -428.25852609 230.19511565 -433.07789612 228.61976624 C-441.94044187 225.72432788 -450.81257393 222.8632471 -459.703125 220.0546875 C-462.40852661 219.19533777 -465.1137124 218.33531149 -467.81887817 217.47521973 C-469.43247734 216.96508558 -471.04742027 216.45917905 -472.66378784 215.95788574 C-496.99247279 208.40828413 -496.99247279 208.40828413 -502.4609375 198.26171875 C-503.48818946 194.1286347 -502.8068993 190.98247249 -500.9609375 187.13671875 C-495.48363018 180.83781533 -489.08342973 177.3027463 -481.34765625 174.42578125 C-480.48210617 174.09180328 -479.61655609 173.75782532 -478.72477722 173.41372681 C-476.8944751 172.70839262 -475.06215926 172.00826387 -473.22796631 171.31311035 C-470.53473839 170.28976097 -467.84955202 169.24796046 -465.16650391 168.19824219 C-459.54073655 165.99742876 -453.90741914 163.81640208 -448.2734375 161.63671875 C-446.15232135 160.815162 -444.03122824 159.99354576 -441.91015625 159.171875 C-424.38807752 152.38621377 -406.85763165 145.62221061 -389.3265686 138.85980225 C-372.86505426 132.50995658 -356.40934161 126.14544571 -339.9609375 119.76171875 C-322.30203768 112.90819095 -304.63399562 106.07865166 -286.9609375 99.26171875 C-269.12193312 92.38046803 -251.28693132 85.48910918 -233.4609375 78.57421875 C-232.4618335 78.18666412 -231.46272949 77.7991095 -230.43334961 77.39981079 C-223.44228931 74.68777371 -216.45157067 71.97485658 -209.4609375 69.26171875 C-201.4611792 66.15692891 -193.46125771 63.05256044 -185.4609375 59.94921875 C-184.46247803 59.56190582 -183.46401855 59.1745929 -182.43530273 58.77554321 C-165.6175413 52.25269871 -148.79057491 45.75385199 -131.9609375 39.26171875 C-113.68536489 32.21143366 -95.41267883 25.1538136 -77.1484375 18.07421875 C-76.13310944 17.68075256 -75.11778137 17.28728638 -74.07168579 16.88189697 C-64.48492549 13.16593618 -54.90051831 9.4446189 -45.3359375 5.671875 C-44.65916458 5.4050441 -43.98239166 5.1382132 -43.28511047 4.86329651 C-40.27848391 3.67711767 -37.27332102 2.4874258 -34.27026367 1.29223633 C-33.27486572 0.8980249 -32.27946777 0.50381348 -31.25390625 0.09765625 C-30.4136792 -0.2370166 -29.57345215 -0.57168945 -28.70776367 -0.91650391 C-20.32534276 -3.98237686 -7.77666174 -4.8818251 0 0 Z " fill="rgba(0,0,0,0.5)" transform="translate(502.4609375,44.73828125)"/>
</svg>
